<?xml version="1.0" encoding="UTF-8"?>
<!DOCTYPE svg PUBLIC "-//W3C//DTD SVG 1.1//EN" "http://www.w3.org/Graphics/SVG/1.1/DTD/svg11.dtd">
<svg xmlns="http://www.w3.org/2000/svg" version="1.1" width="328px" height="328px"
     style="shape-rendering:geometricPrecision; text-rendering:geometricPrecision; image-rendering:optimizeQuality; fill-rule:evenodd; clip-rule:evenodd"
>
    <g>
        <path style="opacity:0.031" fill="#010101"
              d="M 156.5,-0.5 C 161.167,-0.5 165.833,-0.5 170.5,-0.5C 236.852,3.91941 284.686,35.9194 314,95.5C 321.509,113.24 326.009,131.573 327.5,150.5C 327.5,159.5 327.5,168.5 327.5,177.5C 322.005,235.806 294.005,279.64 243.5,309C 223.838,318.947 203.171,325.114 181.5,327.5C 169.5,327.5 157.5,327.5 145.5,327.5C 81.7861,319.626 36.9528,286.293 11,227.5C 4.78425,211.234 0.95092,194.567 -0.5,177.5C -0.5,168.5 -0.5,159.5 -0.5,150.5C 6.55628,83.2178 41.2229,36.3844 103.5,10C 120.883,4.35644 138.55,0.856442 156.5,-0.5 Z"/>
    </g>
    <g>
        <path style="opacity:0.999" fill="#fdfefd"
              d="M 149.5,3.5 C 158.833,3.5 168.167,3.5 177.5,3.5C 179.948,4.47307 182.615,4.8064 185.5,4.5C 187.607,5.46822 189.941,5.80155 192.5,5.5C 193.568,6.43448 194.901,6.76781 196.5,6.5C 197.919,7.45115 199.585,7.78448 201.5,7.5C 202.568,8.43448 203.901,8.76781 205.5,8.5C 206.209,9.40397 207.209,9.73731 208.5,9.5C 209.209,10.404 210.209,10.7373 211.5,10.5C 212.209,11.404 213.209,11.7373 214.5,11.5C 215.209,12.404 216.209,12.7373 217.5,12.5C 217.842,13.3382 218.508,13.6716 219.5,13.5C 220.209,14.404 221.209,14.7373 222.5,14.5C 222.842,15.3382 223.508,15.6716 224.5,15.5C 225.209,16.404 226.209,16.7373 227.5,16.5C 227.842,17.3382 228.508,17.6716 229.5,17.5C 229.842,18.3382 230.508,18.6716 231.5,18.5C 231.842,19.3382 232.508,19.6716 233.5,19.5C 233.842,20.3382 234.508,20.6716 235.5,20.5C 235.842,21.3382 236.508,21.6716 237.5,21.5C 237.5,22.1667 237.833,22.5 238.5,22.5C 238.842,23.3382 239.508,23.6716 240.5,23.5C 240.842,24.3382 241.508,24.6716 242.5,24.5C 242.842,25.3382 243.508,25.6716 244.5,25.5C 244.5,26.1667 244.833,26.5 245.5,26.5C 245.842,27.3382 246.508,27.6716 247.5,27.5C 247.5,28.1667 247.833,28.5 248.5,28.5C 248.842,29.3382 249.508,29.6716 250.5,29.5C 250.5,30.1667 250.833,30.5 251.5,30.5C 251.842,31.3382 252.508,31.6716 253.5,31.5C 253.5,32.1667 253.833,32.5 254.5,32.5C 254.842,33.3382 255.508,33.6716 256.5,33.5C 256.5,34.1667 256.833,34.5 257.5,34.5C 257.5,35.1667 257.833,35.5 258.5,35.5C 258.5,36.1667 258.833,36.5 259.5,36.5C 259.842,37.3382 260.508,37.6716 261.5,37.5C 261.5,38.1667 261.833,38.5 262.5,38.5C 262.5,39.1667 262.833,39.5 263.5,39.5C 263.5,40.1667 263.833,40.5 264.5,40.5C 264.5,41.1667 264.833,41.5 265.5,41.5C 265.5,42.1667 265.833,42.5 266.5,42.5C 267.29,43.4013 268.29,44.0679 269.5,44.5C 269.5,45.1667 269.833,45.5 270.5,45.5C 270.5,46.1667 270.833,46.5 271.5,46.5C 271.5,47.1667 271.833,47.5 272.5,47.5C 272.5,48.1667 272.833,48.5 273.5,48.5C 273.5,49.1667 273.833,49.5 274.5,49.5C 274.5,50.1667 274.833,50.5 275.5,50.5C 275.5,51.1667 275.833,51.5 276.5,51.5C 277.512,52.8717 278.512,54.205 279.5,55.5C 279.5,56.1667 279.833,56.5 280.5,56.5C 280.5,57.1667 280.833,57.5 281.5,57.5C 281.5,58.1667 281.833,58.5 282.5,58.5C 282.5,59.1667 282.833,59.5 283.5,59.5C 283.932,60.7095 284.599,61.7095 285.5,62.5C 285.5,63.1667 285.833,63.5 286.5,63.5C 286.5,64.1667 286.833,64.5 287.5,64.5C 287.328,65.4916 287.662,66.1583 288.5,66.5C 288.5,67.1667 288.833,67.5 289.5,67.5C 289.5,68.1667 289.833,68.5 290.5,68.5C 290.328,69.4916 290.662,70.1583 291.5,70.5C 291.5,71.1667 291.833,71.5 292.5,71.5C 292.328,72.4916 292.662,73.1583 293.5,73.5C 293.5,74.1667 293.833,74.5 294.5,74.5C 294.328,75.4916 294.662,76.1583 295.5,76.5C 295.5,77.1667 295.833,77.5 296.5,77.5C 296.328,78.4916 296.662,79.1583 297.5,79.5C 297.66,81.153 298.326,82.4863 299.5,83.5C 299.5,84.1667 299.833,84.5 300.5,84.5C 300.328,85.4916 300.662,86.1583 301.5,86.5C 301.328,87.4916 301.662,88.1583 302.5,88.5C 302.328,89.4916 302.662,90.1583 303.5,90.5C 303.328,91.4916 303.662,92.1583 304.5,92.5C 330.643,158.154 319.976,216.987 272.5,269C 223.181,313.324 167.181,324.324 104.5,302C 48.531,276.338 16.6977,232.838 9,171.5C 6.85699,143.994 11.357,117.661 22.5,92.5C 23.3382,92.1583 23.6716,91.4916 23.5,90.5C 24.3382,90.1583 24.6716,89.4916 24.5,88.5C 25.3382,88.1583 25.6716,87.4916 25.5,86.5C 26.3382,86.1583 26.6716,85.4916 26.5,84.5C 27.1667,84.5 27.5,84.1667 27.5,83.5C 28.6737,82.4863 29.3404,81.153 29.5,79.5C 30.3382,79.1583 30.6716,78.4916 30.5,77.5C 31.1667,77.5 31.5,77.1667 31.5,76.5C 32.3382,76.1583 32.6716,75.4916 32.5,74.5C 33.1667,74.5 33.5,74.1667 33.5,73.5C 34.3382,73.1583 34.6716,72.4916 34.5,71.5C 35.1667,71.5 35.5,71.1667 35.5,70.5C 36.3382,70.1583 36.6716,69.4916 36.5,68.5C 37.1667,68.5 37.5,68.1667 37.5,67.5C 38.1667,67.5 38.5,67.1667 38.5,66.5C 39.3382,66.1583 39.6716,65.4916 39.5,64.5C 40.1667,64.5 40.5,64.1667 40.5,63.5C 41.1667,63.5 41.5,63.1667 41.5,62.5C 42.4013,61.7095 43.0679,60.7095 43.5,59.5C 44.1667,59.5 44.5,59.1667 44.5,58.5C 45.1667,58.5 45.5,58.1667 45.5,57.5C 46.1667,57.5 46.5,57.1667 46.5,56.5C 47.1667,56.5 47.5,56.1667 47.5,55.5C 48.4884,54.205 49.4884,52.8717 50.5,51.5C 51.1667,51.5 51.5,51.1667 51.5,50.5C 52.1667,50.5 52.5,50.1667 52.5,49.5C 53.1667,49.5 53.5,49.1667 53.5,48.5C 54.1667,48.5 54.5,48.1667 54.5,47.5C 55.1667,47.5 55.5,47.1667 55.5,46.5C 56.1667,46.5 56.5,46.1667 56.5,45.5C 57.1667,45.5 57.5,45.1667 57.5,44.5C 58.7095,44.0679 59.7095,43.4013 60.5,42.5C 61.1667,42.5 61.5,42.1667 61.5,41.5C 62.1667,41.5 62.5,41.1667 62.5,40.5C 63.1667,40.5 63.5,40.1667 63.5,39.5C 64.1667,39.5 64.5,39.1667 64.5,38.5C 65.1667,38.5 65.5,38.1667 65.5,37.5C 66.4916,37.6716 67.1583,37.3382 67.5,36.5C 68.1667,36.5 68.5,36.1667 68.5,35.5C 69.1667,35.5 69.5,35.1667 69.5,34.5C 70.1667,34.5 70.5,34.1667 70.5,33.5C 71.4916,33.6716 72.1583,33.3382 72.5,32.5C 73.1667,32.5 73.5,32.1667 73.5,31.5C 74.4916,31.6716 75.1583,31.3382 75.5,30.5C 76.1667,30.5 76.5,30.1667 76.5,29.5C 77.4916,29.6716 78.1583,29.3382 78.5,28.5C 79.1667,28.5 79.5,28.1667 79.5,27.5C 80.4916,27.6716 81.1583,27.3382 81.5,26.5C 82.1667,26.5 82.5,26.1667 82.5,25.5C 83.4916,25.6716 84.1583,25.3382 84.5,24.5C 85.4916,24.6716 86.1583,24.3382 86.5,23.5C 87.4916,23.6716 88.1583,23.3382 88.5,22.5C 89.1667,22.5 89.5,22.1667 89.5,21.5C 90.4916,21.6716 91.1583,21.3382 91.5,20.5C 92.4916,20.6716 93.1583,20.3382 93.5,19.5C 94.4916,19.6716 95.1583,19.3382 95.5,18.5C 96.4916,18.6716 97.1583,18.3382 97.5,17.5C 98.4916,17.6716 99.1583,17.3382 99.5,16.5C 100.791,16.7373 101.791,16.404 102.5,15.5C 103.492,15.6716 104.158,15.3382 104.5,14.5C 105.791,14.7373 106.791,14.404 107.5,13.5C 108.492,13.6716 109.158,13.3382 109.5,12.5C 110.791,12.7373 111.791,12.404 112.5,11.5C 113.791,11.7373 114.791,11.404 115.5,10.5C 116.791,10.7373 117.791,10.404 118.5,9.5C 119.791,9.73731 120.791,9.40397 121.5,8.5C 123.099,8.76781 124.432,8.43448 125.5,7.5C 127.415,7.78448 129.081,7.45115 130.5,6.5C 132.099,6.76781 133.432,6.43448 134.5,5.5C 136.735,5.79472 138.735,5.46138 140.5,4.5C 143.713,4.81 146.713,4.47667 149.5,3.5 Z"/>
    </g>
    <g>
        <path style="opacity:1" fill="#37c24b"
              d="M 79.5,170.5 C 78.6745,166.018 78.1745,161.351 78,156.5C 77.8283,161.202 77.3283,165.868 76.5,170.5C 73.0923,172.558 70.259,175.225 68,178.5C 67.6667,178.167 67.3333,177.833 67,177.5C 65.8906,179.815 64.0573,181.315 61.5,182C 61.8333,182.333 62.1667,182.667 62.5,183C 61.552,183.483 60.552,183.649 59.5,183.5C 59.5,184.5 59.5,185.5 59.5,186.5C 58.448,186.351 57.448,186.517 56.5,187C 54.5447,189.333 52.378,191.5 50,193.5C 48.1598,192.167 47.6598,192.334 48.5,194C 47.2986,194.903 46.4652,196.069 46,197.5C 44.6651,198.08 43.4985,198.413 42.5,198.5C 25.299,141.799 38.9656,93.9654 83.5,55C 99.3674,42.0675 117.367,33.4008 137.5,29C 155.119,26.4338 171.453,29.7671 186.5,39C 208.697,58.0966 209.03,77.4299 187.5,97C 175.211,104.81 162.544,105.476 149.5,99C 138.007,90.753 126.34,82.753 114.5,75C 106.402,71.5512 100.736,73.8845 97.5,82C 90.1772,104.458 84.3439,127.291 80,150.5C 79.5004,157.158 79.3337,163.825 79.5,170.5 Z"/>
    </g>
    <g>
        <path style="opacity:1" fill="#2cb63c"
              d="M 235.5,77.5 C 240.925,77.0711 244.758,79.4045 247,84.5C 254.771,100.041 261.437,116.041 267,132.5C 268.369,141.093 265.202,147.26 257.5,151C 247.555,152.716 238.222,151.049 229.5,146C 221.847,142.508 214.513,138.508 207.5,134C 197.733,126.088 196.899,117.255 205,107.5C 213.734,95.9315 223.901,85.9315 235.5,77.5 Z"/>
    </g>
    <g>
        <path style="opacity:1" fill="#31ba42"
              d="M 112.5,158.5 C 119.391,157.901 126.058,158.735 132.5,161C 140.93,168.761 141.597,177.095 134.5,186C 126.947,188.678 119.947,187.678 113.5,183C 109.578,179.749 106.412,175.916 104,171.5C 103.333,168.833 103.333,166.167 104,163.5C 106.682,161.415 109.516,159.748 112.5,158.5 Z"/>
    </g>
    <g>
        <path style="opacity:1" fill="#2eb53c"
              d="M 197.5,158.5 C 204.674,158.012 211.674,158.845 218.5,161C 224.155,164.475 224.989,168.975 221,174.5C 215.35,182.078 207.85,186.745 198.5,188.5C 186.91,184.976 183.743,177.642 189,166.5C 191.157,163.024 193.99,160.357 197.5,158.5 Z"/>
    </g>
    <g>
        <path style="opacity:1" fill="#30bb41"
              d="M 79.5,170.5 C 80.7982,185.755 86.4649,199.089 96.5,210.5C 95.1266,210.343 93.7932,210.51 92.5,211C 91.7924,213.768 90.2924,214.601 88,213.5C 85.9045,214.715 86.0712,215.549 88.5,216C 87.3333,216.5 86.5,217.333 86,218.5C 85.6667,218.167 85.3333,217.833 85,217.5C 79.8899,222.712 74.2232,228.045 68,233.5C 66.3335,232.66 66.1669,233.16 67.5,235C 65.6803,235.2 64.347,236.034 63.5,237.5C 53.6573,226.155 46.6573,213.155 42.5,198.5C 43.4985,198.413 44.6651,198.08 46,197.5C 46.4652,196.069 47.2986,194.903 48.5,194C 47.6598,192.334 48.1598,192.167 50,193.5C 52.378,191.5 54.5447,189.333 56.5,187C 57.448,186.517 58.448,186.351 59.5,186.5C 59.5,185.5 59.5,184.5 59.5,183.5C 60.552,183.649 61.552,183.483 62.5,183C 62.1667,182.667 61.8333,182.333 61.5,182C 64.0573,181.315 65.8906,179.815 67,177.5C 67.3333,177.833 67.6667,178.167 68,178.5C 70.259,175.225 73.0923,172.558 76.5,170.5C 77.3283,165.868 77.8283,161.202 78,156.5C 78.1745,161.351 78.6745,166.018 79.5,170.5 Z"/>
    </g>
    <g>
        <path style="opacity:1" fill="#28b237"
              d="M 63.5,237.5 C 64.347,236.034 65.6803,235.2 67.5,235C 66.1669,233.16 66.3335,232.66 68,233.5C 74.2232,228.045 79.8899,222.712 85,217.5C 85.3333,217.833 85.6667,218.167 86,218.5C 86.5,217.333 87.3333,216.5 88.5,216C 86.0712,215.549 85.9045,214.715 88,213.5C 90.2924,214.601 91.7924,213.768 92.5,211C 93.7932,210.51 95.1266,210.343 96.5,210.5C 108.895,222.197 122.228,232.697 136.5,242C 154.328,252.166 172.661,253.166 191.5,245C 211.652,233.175 230.985,220.175 249.5,206C 265.006,203.511 272.172,210.011 271,225.5C 264.377,238.124 255.544,248.957 244.5,258C 200.328,290.728 153.328,295.395 103.5,272C 87.5644,263.568 74.2311,252.068 63.5,237.5 Z"/>
    </g>
    <g>
        <path style="opacity:1" fill="#2cb43a"
              d="M 148.5,209.5 C 158.172,209.334 167.839,209.5 177.5,210C 179.396,211.808 179.896,213.975 179,216.5C 174.833,220.667 170.667,224.833 166.5,229C 163.12,229.938 160.12,229.271 157.5,227C 154,223.5 150.5,220 147,216.5C 146.167,213.829 146.667,211.496 148.5,209.5 Z"/>
    </g>
</svg>
